<svg width="16" height="17" viewBox="0 0 16 17" fill="none" xmlns="http://www.w3.org/2000/svg">
<path d="M13 2.76294H11.5V2.26294C11.5 2.13033 11.4473 2.00315 11.3536 1.90939C11.2598 1.81562 11.1326 1.76294 11 1.76294C10.8674 1.76294 10.7402 1.81562 10.6464 1.90939C10.5527 2.00315 10.5 2.13033 10.5 2.26294V2.76294H5.5V2.26294C5.5 2.13033 5.44732 2.00315 5.35355 1.90939C5.25979 1.81562 5.13261 1.76294 5 1.76294C4.86739 1.76294 4.74021 1.81562 4.64645 1.90939C4.55268 2.00315 4.5 2.13033 4.5 2.26294V2.76294H3C2.73478 2.76294 2.48043 2.8683 2.29289 3.05583C2.10536 3.24337 2 3.49772 2 3.76294V13.7629C2 14.0282 2.10536 14.2825 2.29289 14.47C2.48043 14.6576 2.73478 14.7629 3 14.7629H13C13.2652 14.7629 13.5196 14.6576 13.7071 14.47C13.8946 14.2825 14 14.0282 14 13.7629V3.76294C14 3.49772 13.8946 3.24337 13.7071 3.05583C13.5196 2.8683 13.2652 2.76294 13 2.76294ZM13 5.76294H3V3.76294H4.5V4.26294C4.5 4.39555 4.55268 4.52272 4.64645 4.61649C4.74021 4.71026 4.86739 4.76294 5 4.76294C5.13261 4.76294 5.25979 4.71026 5.35355 4.61649C5.44732 4.52272 5.5 4.39555 5.5 4.26294V3.76294H10.5V4.26294C10.5 4.39555 10.5527 4.52272 10.6464 4.61649C10.7402 4.71026 10.8674 4.76294 11 4.76294C11.1326 4.76294 11.2598 4.71026 11.3536 4.61649C11.4473 4.52272 11.5 4.39555 11.5 4.26294V3.76294H13V5.76294Z" fill="#FDFDFD"/>
</svg>
